<svg xmlns="http://www.w3.org/2000/svg" viewBox="0 0 153 230" fill="#0E0E0E">  <path d="M105.32 225.99 c-4.21 -6.49 -9.32 -14.47 -9.32 -14.58 0 -0.15 4.34 -2.32 4.63 -2.32 0.13 0 1.53 2 3.09 4.45 7.36 11.44 8.99 14.03 8.86 14.16 -0.18 0.17 -2.81 0.66 -4.30 0.81 l-1.23 0.11 -1.73 -2.63z"/>  <path d="M10.43 227.94 c-1.10 -0.13 -2.06 -0.29 -2.11 -0.37 -0.07 -0.07 -0.15 -5.77 -0.18 -12.69 l-0.06 -12.56 0.79 -0.09 c0.44 -0.07 1.66 -0.13 2.72 -0.17 l1.93 -0.06 0.06 13.11 0.04 13.09 -0.59 -0.02 c-0.33 -0.02 -1.51 -0.13 -2.59 -0.26z"/>  <path d="M115.83 221.57 c-2.43 -3.64 -4.40 -6.66 -4.36 -6.68 0.20 -0.15 4.80 -2.32 4.84 -2.28 0.46 0.57 9.36 14.09 9.42 14.31 0.07 0.26 -0.11 0.39 -0.90 0.61 -1.32 0.39 -3.02 0.68 -3.86 0.68 l-0.70 0 -4.43 -6.64z"/>  <path d="M127.64 220.31 c-2.83 -4.36 -5.17 -8 -5.17 -8.09 0 -0.18 4.25 -2.39 4.58 -2.39 0.13 0 8.57 12.69 11.16 16.77 l0.44 0.68 -0.70 0.18 c-1.27 0.33 -3.75 0.75 -4.45 0.75 l-0.70 0 -5.17 -7.91z"/>  <path d="M31.08 227.68 l-0.83 -0.11 -0.06 -7.47 -0.04 -7.47 1.78 -0.11 c0.99 -0.07 2.15 -0.13 2.59 -0.13 l0.77 0 0 7.61 0 7.59 -0.85 0.13 c-0.97 0.13 -2.15 0.11 -3.38 -0.06z"/>  <path d="M144.36 226.61 c-6.80 -10.37 -10.06 -15.48 -9.91 -15.56 0.04 -0.02 1.23 -0.42 2.65 -0.88 1.80 -0.61 2.61 -0.79 2.70 -0.64 0.06 0.11 2.28 3.51 4.93 7.56 5.92 9.03 6.33 9.65 6.22 9.75 -0.13 0.15 -3.46 0.79 -4.65 0.90 l-1.10 0.13 -0.83 -1.25z"/>  <path d="M21.06 227.27 c-0.90 -0.09 -1.77 -0.20 -1.88 -0.26 -0.18 -0.06 -0.24 -2.76 -0.24 -12.65 l0 -12.58 2.48 -0.13 c1.36 -0.07 2.57 -0.07 2.67 -0.02 0.11 0.07 0.18 4.65 0.18 12.98 l0 12.85 -0.77 -0.02 c-0.44 -0.02 -1.53 -0.11 -2.45 -0.18z"/>  <path d="M40.90 227.35 c-0.35 -0.07 -0.40 -0.24 -0.51 -1.47 -0.06 -0.77 -0.11 -6.22 -0.11 -12.10 l0 -10.70 2.61 -0.20 c1.45 -0.11 2.63 -0.18 2.65 -0.17 0.02 0.02 0.07 5.61 0.11 12.41 l0.07 12.36 -2.21 -0.02 c-1.23 -0.02 -2.39 -0.07 -2.61 -0.11z"/>  <path d="M104.56 205.45 c-5.31 -8.51 -7.45 -12.08 -7.34 -12.19 0.22 -0.20 4.34 -2 4.56 -2 0.20 0.02 9.08 14.16 9.23 14.69 0.07 0.28 -0.29 0.46 -2.19 1.08 -1.25 0.42 -2.39 0.77 -2.54 0.77 -0.15 0 -0.94 -1.05 -1.73 -2.35z"/>  <path d="M115.80 201.97 c-4.17 -6.44 -8.61 -13.41 -8.62 -13.57 0 -0.18 4.16 -2.10 4.58 -2.11 0.13 0 0.61 0.61 1.08 1.34 1.36 2.10 9.38 14.55 9.51 14.79 0.15 0.22 -1.95 1.05 -4.60 1.80 -0.37 0.11 -0.59 -0.15 -1.95 -2.24z"/>  <path d="M30.69 203.72 l-0.66 -0.40 -0.13 -2.21 c-0.06 -1.20 -0.11 -5.85 -0.11 -10.32 l0 -8.13 2.50 -0.13 c1.38 -0.07 2.52 -0.11 2.56 -0.07 0.02 0.04 0.11 4.74 0.18 10.46 l0.13 10.39 -1.14 0.31 c-1.91 0.53 -2.57 0.55 -3.33 0.09z"/>  <path d="M127.68 200.76 c-7.94 -12.19 -8.92 -13.77 -8.68 -13.99 0.48 -0.44 3.84 -2.50 4.08 -2.50 0.11 0 0.97 1.18 1.91 2.63 0.92 1.43 3.38 5.24 5.46 8.48 2.08 3.22 3.79 5.92 3.79 5.98 0 0.17 -1.53 0.77 -3.22 1.31 -0.70 0.22 -1.40 0.42 -1.53 0.48 -0.13 0.04 -0.88 -0.96 -1.82 -2.37z"/>  <path d="M88.20 199.84 c-2.78 -4.41 -9.34 -15.08 -9.42 -15.30 -0.09 -0.24 3.75 -2.85 4.19 -2.85 0.13 0 0.66 0.68 1.18 1.53 0.51 0.83 2.92 4.69 5.35 8.59 2.41 3.90 4.58 7.39 4.82 7.76 l0.42 0.70 -2.26 1.10 c-1.23 0.61 -2.34 1.10 -2.45 1.10 -0.11 0 -0.94 -1.18 -1.84 -2.63z"/>  <path d="M40.18 193.46 c-0.07 -0.11 -0.18 -5.17 -0.24 -11.20 l-0.09 -11 1.54 -0.11 c0.85 -0.07 2.06 -0.13 2.67 -0.13 l1.14 0 0.07 11.18 c0.04 6.14 0.06 11.20 0.02 11.25 -0.04 0.04 -1.18 0.11 -2.52 0.15 -1.78 0.06 -2.48 0.02 -2.59 -0.15z"/>  <path d="M20.60 192.13 c-0.96 -0.09 -1.78 -0.22 -1.84 -0.28 -0.06 -0.04 -0.11 -4.08 -0.15 -8.96 l-0.07 -8.88 1.27 -0.11 c0.68 -0.07 1.89 -0.13 2.68 -0.13 l1.42 0 0 9.29 0 9.29 -0.77 -0.02 c-0.44 -0.02 -1.58 -0.11 -2.54 -0.20z"/>  <path d="M11.31 191.42 c-1.01 -0.07 -2.17 -0.20 -2.59 -0.26 l-0.75 -0.11 -0.11 -2.98 c-0.06 -1.64 -0.11 -6.12 -0.13 -9.99 l-0.02 -7.01 1.42 -0.11 c0.77 -0.07 2.02 -0.13 2.78 -0.13 l1.34 0 0 10.39 c0 5.72 -0.02 10.37 -0.04 10.37 -0.04 -0.02 -0.88 -0.09 -1.89 -0.18z"/>  <path d="M90.94 184.04 c-1.29 -1.93 -5.35 -8.20 -6.68 -10.32 l-1.12 -1.78 2.39 -1.21 c1.32 -0.66 2.45 -1.18 2.46 -1.14 0.13 0.13 8.73 13.41 8.73 13.48 0 0.04 -0.37 0.44 -0.81 0.88 -0.72 0.70 -0.97 0.83 -2.08 1.03 -0.68 0.13 -1.42 0.26 -1.64 0.31 -0.29 0.07 -0.53 -0.17 -1.27 -1.25z"/>  <path d="M99.67 176.94 c-2.15 -3.37 -7.28 -11.49 -7.52 -11.97 -0.18 -0.31 0.02 -0.44 2.15 -1.29 1.29 -0.51 2.43 -0.94 2.52 -0.94 0.11 0 0.40 0.35 0.66 0.79 0.28 0.42 1.80 2.85 3.42 5.37 5.13 8.05 5.31 8.39 4.93 8.62 -1.27 0.77 -3.92 2.13 -4.14 2.13 -0.15 0 -1.05 -1.20 -2.02 -2.72z"/>  <path d="M111.88 176.04 c-2.68 -4.10 -8.64 -13.39 -9.34 -14.55 -0.39 -0.64 -0.66 -1.20 -0.61 -1.25 0.04 -0.04 1.12 -0.48 2.39 -0.97 1.66 -0.63 2.37 -0.83 2.50 -0.68 0.15 0.20 7.76 12.01 9.93 15.43 0.63 0.99 1.12 1.84 1.08 1.88 -0.11 0.13 -4.32 2.30 -4.43 2.30 -0.07 0 -0.75 -0.97 -1.53 -2.15z"/>  <path d="M72.22 174.57 c-0.55 -0.90 -2.50 -4.10 -4.36 -7.14 -1.84 -3.03 -4.05 -6.64 -4.89 -8 -1.40 -2.28 -1.51 -2.50 -1.21 -2.72 0.50 -0.39 4.01 -2.24 4.23 -2.24 0.09 0 0.35 0.28 0.53 0.61 0.20 0.31 2.04 3.37 4.10 6.75 4.63 7.65 6.99 11.57 6.99 11.66 0 0.07 -4.16 2.68 -4.30 2.68 -0.06 0 -0.53 -0.72 -1.08 -1.60z"/>  <path d="M32.83 171.28 c-0.20 -0.04 -0.92 -0.11 -1.60 -0.17 l-1.25 -0.13 0 -8.96 0 -8.97 1.69 -0.13 c0.92 -0.06 2.08 -0.11 2.57 -0.11 l0.88 0 0 5.11 c0 2.81 0.06 7.01 0.13 9.29 l0.11 4.17 -1.08 -0.02 c-0.59 -0.02 -1.25 -0.06 -1.45 -0.09z"/>  <path d="M75.36 159.97 c-5.98 -9.75 -6.36 -10.37 -6.23 -10.50 0.18 -0.20 4.45 -2.39 4.52 -2.34 0.07 0.09 3.03 4.89 5.24 8.53 0.99 1.62 2.39 3.94 3.13 5.13 0.77 1.27 1.27 2.23 1.14 2.28 -0.11 0.04 -0.50 0.26 -0.86 0.51 -0.37 0.24 -0.74 0.44 -0.85 0.44 -0.09 0 -0.66 0.26 -1.27 0.55 -0.61 0.31 -1.21 0.55 -1.36 0.55 -0.15 0 -1.62 -2.21 -3.46 -5.17z"/>  <path d="M42.68 162.45 c-0.53 -1.16 -0.94 -2.15 -0.88 -2.21 0.09 -0.09 14.47 -6.33 14.73 -6.38 0.26 -0.06 2.76 4.10 2.57 4.28 -0.09 0.09 -0.90 0.46 -1.80 0.83 -0.90 0.37 -1.77 0.75 -1.93 0.83 -0.53 0.29 -1.93 0.88 -4.80 2.02 -1.56 0.63 -3.25 1.34 -3.77 1.58 -0.96 0.44 -2.85 1.18 -3.05 1.18 -0.06 0 -0.55 -0.96 -1.07 -2.13z"/>  <path d="M20.36 160.89 c-0.70 -0.07 -1.38 -0.18 -1.53 -0.24 -0.22 -0.09 -0.26 -1.69 -0.26 -10.50 l0 -10.39 0.88 0 c0.48 0 1.67 -0.06 2.67 -0.13 l1.78 -0.11 0 10.78 0 10.79 -1.14 -0.02 c-0.64 -0.02 -1.73 -0.09 -2.41 -0.18z"/>  <path d="M9.86 160.14 c-1.12 -0.09 -2.06 -0.20 -2.11 -0.26 -0.17 -0.17 -0.22 -25.32 -0.06 -25.49 0.07 -0.07 1.29 -0.20 2.67 -0.28 l2.52 -0.11 0 7.91 c0 4.34 0.06 10.28 0.13 13.17 l0.11 5.28 -0.63 -0.02 c-0.35 -0.02 -1.53 -0.11 -2.63 -0.20z"/>  <path d="M86.61 156.44 c-2.61 -4.03 -8.51 -13.46 -8.59 -13.74 -0.06 -0.22 0.42 -0.61 1.75 -1.43 0.99 -0.63 1.99 -1.14 2.19 -1.14 0.42 0 0.39 -0.06 4.87 6.99 4.05 6.34 5.11 8.07 5.11 8.16 0 0.07 -0.72 0.51 -3.79 2.34 l-0.55 0.33 -0.99 -1.51z"/>  <path d="M42.20 151.49 c-0.57 -1.12 -0.96 -2.11 -0.88 -2.19 0.09 -0.07 1.27 -0.61 2.63 -1.18 1.36 -0.57 3.73 -1.58 5.24 -2.24 2.65 -1.16 5.24 -2.26 5.33 -2.26 0.18 0 2.68 4.10 2.56 4.21 -0.09 0.07 -0.46 0.26 -0.81 0.39 -0.35 0.13 -1.21 0.51 -1.93 0.83 -0.70 0.33 -1.95 0.86 -2.76 1.20 -0.81 0.33 -1.80 0.74 -2.21 0.92 -2.76 1.23 -5.61 2.39 -5.87 2.39 -0.20 0 -0.64 -0.68 -1.31 -2.06z"/>  <path d="M91.63 145.13 c-2.85 -4.52 -5.24 -8.35 -5.30 -8.51 -0.09 -0.22 0.37 -0.66 1.82 -1.71 1.05 -0.77 2 -1.40 2.10 -1.40 0.11 0 0.35 0.28 0.55 0.61 0.20 0.31 2.68 4.27 5.54 8.75 l5.17 8.16 -0.79 0.46 c-0.99 0.59 -3.05 1.60 -3.53 1.77 -0.33 0.09 -1.01 -0.90 -5.55 -8.13z"/>  <path d="M63.87 143.16 c-0.74 -1.05 -1.34 -2 -1.34 -2.10 0 -0.09 0.39 -0.46 0.88 -0.81 6.07 -4.38 9.93 -7.21 11.90 -8.66 1.75 -1.32 2.45 -1.75 2.67 -1.64 0.40 0.20 3.84 2.89 3.84 3 0.02 0.29 -16.24 12.19 -16.59 12.14 -0.02 -0.02 -0.64 -0.88 -1.36 -1.93z"/>  <path d="M42.41 142.44 c-0.86 -2.04 -1.58 -3.90 -1.58 -4.10 0 -0.13 0.07 -0.24 0.17 -0.24 0.09 0 3.94 -1.73 8.55 -3.86 4.60 -2.11 8.42 -3.86 8.51 -3.86 0.17 0.02 2.68 3.44 2.78 3.77 0.02 0.11 -0.57 0.48 -1.34 0.83 -0.75 0.33 -1.47 0.72 -1.58 0.85 -0.09 0.11 -0.40 0.28 -0.66 0.35 -0.48 0.11 -1.93 0.75 -4.84 2.15 -3.48 1.66 -4.71 2.23 -5.06 2.35 -0.20 0.07 -0.90 0.39 -1.56 0.70 -0.66 0.33 -1.32 0.59 -1.47 0.59 -0.17 0 -0.44 0.11 -0.64 0.24 -0.53 0.37 -1.16 0.50 -1.27 0.24z"/>  <path d="M32.20 141.95 c-1.25 -0.09 -2.32 -0.20 -2.37 -0.24 -0.04 -0.06 -0.13 -4.06 -0.18 -8.90 l-0.09 -8.81 1.71 -0.11 c0.94 -0.07 2.15 -0.13 2.70 -0.13 l0.97 0 0 9.19 c0 7.25 -0.06 9.19 -0.22 9.18 -0.13 -0.02 -1.27 -0.11 -2.52 -0.18z"/>  <path d="M96.36 132.16 c-0.35 -0.31 -1.18 -1.05 -1.82 -1.64 l-1.18 -1.03 5.77 -5.96 c3.18 -3.25 6.40 -6.58 7.15 -7.36 0.74 -0.79 1.43 -1.43 1.53 -1.43 0.26 0 4.36 2.72 4.36 2.89 0 0.17 -14.93 15.13 -15.08 15.13 -0.06 0 -0.39 -0.28 -0.74 -0.61z"/>  <path d="M43.12 128.78 c-1.10 -1.16 -1.43 -1.40 -2.28 -1.62 -0.53 -0.13 -1.01 -0.29 -1.05 -0.33 -0.06 -0.06 -0.15 -4.60 -0.20 -10.13 l-0.11 -10.04 2.65 0 2.65 0 0.07 8.70 c0.04 4.76 0.09 8.70 0.11 8.73 0.04 0.04 1.36 -0.72 2.96 -1.64 3.51 -2.04 10.92 -6.38 11.88 -6.95 0.39 -0.24 0.77 -0.39 0.86 -0.35 0.42 0.15 3.68 3.16 3.59 3.31 -0.11 0.18 -1.25 0.96 -2.26 1.54 -0.37 0.20 -1.03 0.61 -1.49 0.90 -0.46 0.29 -1.12 0.70 -1.47 0.88 -0.35 0.20 -0.90 0.55 -1.23 0.79 -0.31 0.24 -0.63 0.44 -0.70 0.44 -0.06 0 -0.44 0.22 -0.88 0.50 -0.42 0.28 -1.07 0.66 -1.43 0.88 -0.35 0.20 -1.49 0.86 -2.54 1.47 -1.03 0.61 -2.02 1.20 -2.19 1.29 -2.65 1.54 -5.35 3.03 -5.48 3.02 -0.09 -0.02 -0.74 -0.64 -1.45 -1.40z"/>  <path d="M20.96 129.06 c-1.27 -0.11 -2.34 -0.22 -2.39 -0.28 -0.06 -0.04 -0.11 -5.59 -0.15 -12.30 l-0.06 -12.21 2.56 0 2.56 0 0.11 5.94 c0.22 10.15 0.17 19.07 -0.09 19.05 -0.13 -0.02 -1.27 -0.11 -2.54 -0.20z"/>  <path d="M66.72 127.75 c-0.64 -0.72 -1.40 -1.60 -1.69 -1.95 l-0.51 -0.63 0.63 -0.48 c0.53 -0.42 7.43 -6.23 11.86 -9.99 l1.71 -1.43 1.88 1.49 c1.05 0.81 1.89 1.56 1.89 1.64 0 0.09 -0.74 0.85 -1.66 1.66 -1.95 1.78 -12.36 10.70 -12.69 10.89 -0.15 0.09 -0.64 -0.31 -1.42 -1.20z"/>  <path d="M87.44 125.75 c-0.40 -0.33 -1.31 -1.03 -1.99 -1.58 l-1.25 -0.97 4.95 -5.09 c2.72 -2.80 5.19 -5.37 5.46 -5.68 0.28 -0.33 0.57 -0.61 0.68 -0.61 0.24 0 3.83 2.59 3.83 2.76 0 0.28 -10.57 11.77 -10.81 11.77 -0.07 -0.02 -0.46 -0.28 -0.86 -0.59z"/>  <path d="M7.50 120.69 c-0.04 -1.20 -0.09 -7.76 -0.11 -14.60 l-0.04 -12.45 2.48 -0.13 c1.38 -0.07 2.52 -0.11 2.56 -0.07 0.04 0.04 0.13 6.68 0.20 14.75 l0.15 14.66 -2.59 0 -2.59 0 -0.06 -2.15z"/>  <path d="M32.27 112.41 c-0.29 -0.02 -1.07 -0.11 -1.69 -0.17 l-1.16 -0.11 0 -9.73 0 -9.73 2.57 0 2.57 0 0 6.22 c0 3.40 0.06 7.87 0.13 9.93 l0.11 3.71 -0.99 -0.02 c-0.55 -0.02 -1.23 -0.07 -1.54 -0.11z"/>  <path d="M70.32 110.56 l-1.88 -1.58 1.78 -1.88 c6.60 -7.01 11.86 -12.49 11.99 -12.54 0.20 -0.09 4.40 2.17 4.40 2.35 0 0.17 -2.91 3.38 -6.16 6.80 -3 3.16 -8.15 8.46 -8.22 8.46 -0.02 -0.02 -0.90 -0.74 -1.91 -1.62z"/>  <path d="M87.81 109.12 c-0.90 -0.66 -1.84 -1.38 -2.06 -1.60 l-0.40 -0.40 1.78 -2.21 c2.83 -3.53 6.49 -8.15 7.65 -9.69 0.59 -0.79 1.12 -1.43 1.16 -1.43 0.15 0 3.79 1.97 4.16 2.24 0.37 0.28 0.59 -0.06 -2.54 3.92 -0.72 0.92 -2.76 3.51 -4.52 5.79 -1.77 2.26 -3.27 4.23 -3.38 4.36 -0.15 0.17 -0.57 -0.06 -1.84 -0.97z"/>  <path d="M103.29 109.03 l-2.17 -1.29 0.57 -0.77 c0.31 -0.42 2.54 -3.57 4.93 -7.01 2.39 -3.42 4.45 -6.25 4.56 -6.31 0.20 -0.07 4.25 1.66 4.52 1.95 0.15 0.13 -0.50 1.08 -4.51 6.91 -3.46 5 -5.46 7.82 -5.61 7.82 -0.07 0 -1.10 -0.59 -2.30 -1.31z"/>  <path d="M116.81 109.03 c-1.14 -0.72 -2.06 -1.36 -2.06 -1.43 0 -0.09 1.31 -2.10 2.91 -4.45 1.58 -2.37 3.46 -5.19 4.16 -6.27 0.70 -1.10 1.27 -1.99 1.29 -1.99 1.14 0.26 4.97 1.67 4.93 1.82 -0.06 0.29 -8.94 13.61 -9.07 13.63 -0.06 0 -1.03 -0.59 -2.15 -1.31z"/>  <path d="M40.71 95.68 l-1.14 -0.07 -0.13 -3.53 c-0.06 -1.95 -0.09 -6.34 -0.06 -9.78 l0.06 -6.25 2.63 -0.06 2.61 -0.06 0 9.95 0 9.93 -1.42 -0.04 c-0.79 -0.02 -1.95 -0.06 -2.56 -0.09z"/>  <path d="M20.23 91.73 c-1.07 -0.11 -1.95 -0.20 -1.97 -0.22 -0.02 -0.02 -0.11 -4.17 -0.17 -9.23 -0.11 -7.78 -0.09 -9.21 0.13 -9.38 0.15 -0.13 1.21 -0.24 2.65 -0.28 l2.39 -0.07 0.06 9.71 0.04 9.69 -0.59 -0.02 c-0.33 -0.02 -1.47 -0.11 -2.54 -0.20z"/>  <path d="M102.85 88.95 c-1.12 -0.53 -2.10 -1.01 -2.17 -1.08 -0.07 -0.07 1.54 -2.96 3.60 -6.44 2.04 -3.48 4.38 -7.43 5.19 -8.79 0.79 -1.36 1.51 -2.56 1.60 -2.63 0.11 -0.13 5.30 0.53 5.48 0.70 0.06 0.06 -2.23 4.05 -6.29 10.94 -3.92 6.68 -4.93 8.28 -5.17 8.26 -0.09 0 -1.10 -0.44 -2.24 -0.96z"/>  <path d="M90.07 88.43 c-1.20 -0.70 -2.17 -1.36 -2.17 -1.43 0 -0.07 0.66 -1.16 1.49 -2.41 0.81 -1.23 1.95 -3.02 2.54 -3.94 0.59 -0.92 2.11 -3.33 3.42 -5.35 1.29 -2.02 2.61 -4.10 2.94 -4.62 l0.61 -0.94 2.68 0.40 c1.47 0.22 2.72 0.44 2.76 0.48 0.06 0.06 -0.15 0.46 -0.42 0.90 -0.28 0.46 -1.77 2.81 -3.27 5.24 -1.53 2.43 -3.90 6.20 -5.30 8.37 -1.40 2.17 -2.63 4.10 -2.74 4.28 -0.11 0.17 -0.24 0.31 -0.29 0.31 -0.06 0 -1.07 -0.59 -2.24 -1.31z"/>  <path d="M129.09 88.89 c-1.16 -0.46 -2.19 -0.90 -2.28 -0.99 -0.09 -0.09 0.51 -1.45 1.42 -3.16 0.85 -1.66 2.94 -5.76 4.63 -9.14 l3.09 -6.12 0.66 0.09 c0.37 0.06 1.51 0.20 2.54 0.33 1.03 0.13 1.97 0.28 2.08 0.35 0.15 0.09 -0.39 1.34 -1.66 3.88 -4.12 8.24 -7.96 15.61 -8.16 15.59 -0.11 0 -1.16 -0.37 -2.32 -0.83z"/>  <path d="M116.83 88.05 c-1.25 -0.51 -2.26 -1.01 -2.26 -1.12 0 -0.11 1.49 -3.02 3.29 -6.45 1.80 -3.46 3.70 -7.10 4.21 -8.13 0.51 -1.01 1.05 -1.95 1.21 -2.08 0.22 -0.18 0.72 -0.18 2.72 0.09 1.34 0.17 2.52 0.39 2.59 0.44 0.18 0.17 -0.64 1.84 -4.40 8.96 -4.58 8.68 -4.89 9.25 -5 9.25 -0.07 -0.02 -1.14 -0.44 -2.37 -0.96z"/>  <path d="M7.30 82.62 c-0.07 -0.06 -0.13 -4.85 -0.13 -10.63 l0 -10.52 1.69 -0.13 c0.92 -0.06 2.06 -0.11 2.54 -0.11 l0.86 0 0.11 6.38 c0.07 3.49 0.13 8.29 0.13 10.65 0 3.71 -0.04 4.28 -0.29 4.38 -0.39 0.15 -4.76 0.15 -4.91 -0.02z"/>  <path d="M33.19 81.01 c-0.09 -0.04 -1.07 -0.13 -2.15 -0.18 l-1.99 -0.13 0 -11.57 0 -11.57 2.54 0 2.56 0 0.11 7.32 c0.07 4.01 0.13 9.31 0.13 11.77 l0 4.45 -0.50 -0.02 c-0.29 0 -0.59 -0.04 -0.70 -0.07z"/>  <path d="M39.28 65.25 c-0.06 -0.92 -0.11 -6.38 -0.11 -12.12 l0 -10.43 2.54 -0.07 c1.38 -0.04 2.56 -0.04 2.59 0 0.06 0.02 0.13 5.50 0.17 12.17 l0.09 12.14 -2.57 0 -2.57 0 -0.13 -1.69z"/>  <path d="M19.36 61.62 c-0.72 -0.06 -1.36 -0.15 -1.40 -0.20 -0.06 -0.06 -0.17 -4.54 -0.24 -9.99 l-0.13 -9.88 1.45 0 c0.79 0 2 -0.06 2.70 -0.13 l1.23 -0.11 0 10.24 0 10.22 -1.14 -0.04 c-0.64 -0.02 -1.75 -0.07 -2.48 -0.13z"/>  <path d="M7.14 51.73 c-0.31 -0.07 -0.33 -0.70 -0.33 -9.78 l0 -9.71 1.53 -0.11 c0.83 -0.07 2.02 -0.13 2.67 -0.13 l1.14 0 0 9.93 0 9.93 -2.34 -0.02 c-1.31 -0.02 -2.50 -0.06 -2.67 -0.11z"/>  <path d="M30.89 47.32 c-0.46 -0.04 -1.10 -0.11 -1.42 -0.15 l-0.61 -0.11 0 -8.72 0 -8.73 0.97 0 c0.55 0 1.75 -0.06 2.67 -0.11 l1.69 -0.13 0 9.05 0 9.03 -1.23 -0.04 c-0.70 -0.02 -1.62 -0.06 -2.08 -0.09z"/>  <path d="M40.18 31.46 l-1.10 -0.11 -0.09 -14.25 c-0.06 -7.83 -0.06 -14.31 0 -14.36 0.06 -0.07 1.23 -0.18 2.63 -0.26 l2.52 -0.13 0 7.17 c0 3.94 0.06 10.52 0.13 14.62 l0.11 7.48 -1.54 -0.04 c-0.85 -0.02 -2.04 -0.07 -2.65 -0.13z"/>  <path d="M17.73 30.75 c-0.15 -0.09 -0.24 -4.16 -0.31 -14.03 l-0.09 -13.90 1.21 -0.13 c0.68 -0.06 1.86 -0.11 2.63 -0.11 l1.40 0 0.11 10.63 c0.07 5.83 0.13 12.21 0.13 14.16 l0 3.53 -2.43 0 c-1.34 0 -2.54 -0.07 -2.65 -0.15z"/>  <path d="M9.01 22.67 c-0.86 -0.04 -1.75 -0.09 -1.97 -0.15 l-0.42 -0.09 0 -9.73 0 -9.71 2.54 -0.09 c1.38 -0.06 2.57 -0.06 2.67 -0.02 0.07 0.04 0.13 4.54 0.13 10 l0 9.91 -0.68 -0.04 c-0.39 -0.02 -1.40 -0.06 -2.26 -0.09z"/>  <path d="M30.31 18.74 c-0.88 -0.07 -1.69 -0.18 -1.80 -0.26 -0.13 -0.07 -0.18 -2.70 -0.18 -7.98 l0 -7.87 1.53 -0.11 c0.83 -0.07 2.02 -0.13 2.67 -0.13 l1.14 0 0 8.28 0 8.28 -0.86 -0.02 c-0.50 -0.02 -1.60 -0.09 -2.48 -0.18z"/></svg>
